<svg width="17" height="17" viewBox="0 0 17 17" fill="none" xmlns="http://www.w3.org/2000/svg">
<path d="M9.43887 8.501L16.8052 1.13464C17.0645 0.875288 17.0645 0.454804 16.8052 0.195488C16.5458 -0.0638275 16.1254 -0.0638607 15.866 0.195488L8.49969 7.56185L1.13336 0.195488C0.874006 -0.0638607 0.453523 -0.0638607 0.194207 0.195488C-0.0651093 0.454838 -0.0651425 0.875321 0.194207 1.13464L7.56054 8.50097L0.194207 15.8673C-0.0651425 16.1267 -0.0651425 16.5472 0.194207 16.8065C0.323865 16.9361 0.493831 17.001 0.663797 17.001C0.833764 17.001 1.0037 16.9361 1.13339 16.8065L8.49969 9.44015L15.866 16.8065C15.9957 16.9361 16.1656 17.001 16.3356 17.001C16.5056 17.001 16.6755 16.9361 16.8052 16.8065C17.0645 16.5471 17.0645 16.1266 16.8052 15.8673L9.43887 8.501Z" fill="white"/>
</svg>
