<svg width="16" height="15" viewBox="0 0 16 15" fill="none" xmlns="http://www.w3.org/2000/svg">
<path d="M12.7569 11.1855C12.4805 10.531 12.0795 9.93648 11.5762 9.43506C11.0744 8.93219 10.48 8.53126 9.82572 8.25439C9.81986 8.25146 9.814 8.25 9.80814 8.24707C10.7207 7.58789 11.314 6.51416 11.314 5.30273C11.314 3.2959 9.68803 1.66992 7.68119 1.66992C5.67435 1.66992 4.04838 3.2959 4.04838 5.30273C4.04838 6.51416 4.64164 7.58789 5.55424 8.24853C5.54838 8.25146 5.54252 8.25293 5.53666 8.25586C4.88041 8.53271 4.29154 8.92969 3.78617 9.43652C3.2833 9.93833 2.88237 10.5328 2.60551 11.187C2.33352 11.8275 2.18683 12.5142 2.17338 13.21C2.17299 13.2256 2.17573 13.2411 2.18144 13.2557C2.18716 13.2703 2.19573 13.2835 2.20665 13.2947C2.21757 13.3059 2.23062 13.3148 2.24503 13.3209C2.25944 13.327 2.27493 13.3301 2.29056 13.3301H3.16947C3.23392 13.3301 3.28519 13.2788 3.28666 13.2158C3.31595 12.085 3.77006 11.0259 4.57279 10.2231C5.40336 9.39258 6.50638 8.93555 7.68119 8.93555C8.85599 8.93555 9.95902 9.39258 10.7896 10.2231C11.5923 11.0259 12.0464 12.085 12.0757 13.2158C12.0772 13.2803 12.1285 13.3301 12.1929 13.3301H13.0718C13.0875 13.3301 13.1029 13.327 13.1173 13.3209C13.1318 13.3148 13.1448 13.3059 13.1557 13.2947C13.1667 13.2835 13.1752 13.2703 13.1809 13.2557C13.1867 13.2411 13.1894 13.2256 13.189 13.21C13.1744 12.5098 13.0293 11.8286 12.7569 11.1855ZM7.68119 7.82227C7.00883 7.82227 6.37601 7.56006 5.89994 7.08398C5.42387 6.60791 5.16166 5.9751 5.16166 5.30273C5.16166 4.63037 5.42387 3.99756 5.89994 3.52148C6.37601 3.04541 7.00883 2.7832 7.68119 2.7832C8.35355 2.7832 8.98637 3.04541 9.46244 3.52148C9.93851 3.99756 10.2007 4.63037 10.2007 5.30273C10.2007 5.9751 9.93851 6.60791 9.46244 7.08398C8.98637 7.56006 8.35355 7.82227 7.68119 7.82227Z" fill="#4D4D4D"/>
</svg>
