<svg width="18" height="18" viewBox="0 0 18 18" fill="none" xmlns="http://www.w3.org/2000/svg">
<g clip-path="url(#clip0_28_890)">
<path d="M8.80001 12.16L7.57001 13.38C7.19571 13.7495 6.69095 13.9567 6.16501 13.9567C5.63908 13.9567 5.13431 13.7495 4.76001 13.38C4.57754 13.198 4.43277 12.9817 4.33399 12.7436C4.23521 12.5055 4.18437 12.2503 4.18437 11.9925C4.18437 11.7348 4.23521 11.4795 4.33399 11.2415C4.43277 11.0034 4.57754 10.7871 4.76001 10.605L7.10501 8.28004C7.47931 7.91057 7.98408 7.7034 8.51001 7.7034C9.03595 7.7034 9.54071 7.91057 9.91501 8.28004C10.1532 8.51669 10.3256 8.81139 10.415 9.13504C10.4642 9.09445 10.5094 9.04924 10.55 9.00004L11.195 8.36004C11.0506 8.05943 10.8562 7.78553 10.62 7.55004C10.0583 6.99432 9.30013 6.68262 8.51001 6.68262C7.71989 6.68262 6.96168 6.99432 6.40001 7.55004L4.05001 9.89504C3.77321 10.1697 3.55352 10.4965 3.40359 10.8565C3.25367 11.2165 3.17648 11.6026 3.17648 11.9925C3.17648 12.3825 3.25367 12.7686 3.40359 13.1286C3.55352 13.4886 3.77321 13.8154 4.05001 14.09C4.61168 14.6458 5.36989 14.9575 6.16001 14.9575C6.95013 14.9575 7.70835 14.6458 8.27001 14.09L10.095 12.28H9.84501C9.49292 12.2862 9.14155 12.2459 8.80001 12.16Z" fill="#929493"/>
<path d="M14.305 3.91002C13.7433 3.35431 12.9851 3.0426 12.195 3.0426C11.4049 3.0426 10.6467 3.35431 10.085 3.91002L8.26 5.72002H8.505C8.85966 5.71993 9.21275 5.76701 9.555 5.86002L10.785 4.64002C11.1593 4.27055 11.6641 4.06339 12.19 4.06339C12.7159 4.06339 13.2207 4.27055 13.595 4.64002C13.7775 4.82208 13.9222 5.03835 14.021 5.27644C14.1198 5.51452 14.1706 5.76976 14.1706 6.02752C14.1706 6.28529 14.1198 6.54052 14.021 6.77861C13.9222 7.0167 13.7775 7.23296 13.595 7.41502L11.25 9.74002C10.8757 10.1095 10.3709 10.3167 9.845 10.3167C9.31907 10.3167 8.8143 10.1095 8.44 9.74002C8.20179 9.50337 8.02945 9.20866 7.94 8.88502C7.88995 8.91904 7.84309 8.95753 7.8 9.00002L7.155 9.64002C7.29942 9.94063 7.49385 10.2145 7.73 10.45C8.29166 11.0057 9.04988 11.3174 9.84 11.3174C10.6301 11.3174 11.3883 11.0057 11.95 10.45L14.295 8.12502C14.5712 7.85 14.7904 7.52313 14.9399 7.16318C15.0895 6.80324 15.1664 6.4173 15.1664 6.02752C15.1664 5.63775 15.0895 5.25181 14.9399 4.89186C14.7904 4.53191 14.5712 4.20505 14.295 3.93002L14.305 3.91002Z" fill="#929493"/>
</g>
<defs>
<clipPath id="clip0_28_890">
<rect width="18" height="18" fill="white"/>
</clipPath>
</defs>
</svg>
