<?xml version="1.0" standalone="no"?>
<!DOCTYPE svg PUBLIC "-//W3C//DTD SVG 20010904//EN"
 "http://www.w3.org/TR/2001/REC-SVG-20010904/DTD/svg10.dtd">
<svg version="1.0" xmlns="http://www.w3.org/2000/svg"
 width="640.000000pt" height="640.000000pt" viewBox="0 0 640.000000 640.000000"
 preserveAspectRatio="xMidYMid meet">
<metadata>
Created by potrace 1.16, written by Peter Selinger 2001-2019
</metadata>
<g transform="translate(0.000000,640.000000) scale(0.100000,-0.100000)"
fill="#000000" stroke="none">
<path d="M4677 4619 c-91 -21 -143 -59 -378 -271 -129 -117 -302 -274 -385
-348 -82 -74 -151 -137 -154 -140 -3 -3 -48 -44 -100 -91 -200 -180 -546 -493
-792 -716 -142 -128 -261 -233 -265 -233 -4 0 -145 138 -313 307 -168 169
-332 332 -366 363 -146 133 -328 161 -500 76 -170 -85 -269 -278 -235 -462 26
-143 15 -131 593 -710 339 -340 548 -542 581 -562 157 -95 371 -77 508 42 20
17 341 308 715 646 788 715 824 747 1213 1098 161 146 311 287 331 314 186
235 59 606 -235 682 -64 17 -158 19 -218 5z m255 -103 c147 -70 231 -234 199
-389 -19 -95 -55 -149 -155 -240 -50 -45 -93 -84 -96 -87 -7 -7 -394 -359
-479 -434 -36 -32 -106 -96 -156 -141 -49 -45 -358 -325 -686 -621 -327 -296
-634 -574 -681 -616 -117 -107 -175 -133 -293 -133 -157 0 -134 -18 -723 569
-282 281 -526 531 -542 556 -112 176 -53 412 127 507 105 56 227 61 331 12 35
-16 143 -117 434 -407 361 -360 388 -384 406 -371 11 8 451 405 978 883 528
478 976 880 997 894 89 59 237 67 339 18z"/>
</g>
</svg>
